HIERARCHY
ROOT Hips
{
	OFFSET -0.001795 -0.223333 0.028219
	CHANNELS 6 Xposition Yposition Zposition Zrotation Yrotation Xrotation 
	JOINT LeftUpLeg
	{
		OFFSET 0.069520 -0.091406 -0.006815
		CHANNELS 3 Zrotation Yrotation Xrotation
		JOINT LeftLeg
		{
			OFFSET 0.034277 -0.375199 -0.004496
			CHANNELS 3 Zrotation Yrotation Xrotation
			JOINT LeftFoot
			{
				OFFSET -0.013596 -0.397961 -0.043693
				CHANNELS 3 Zrotation Yrotation Xrotation
				JOINT LeftToe
				{
					OFFSET 0.026358 -0.055791 0.119288
					CHANNELS 3 Zrotation Yrotation Xrotation
					End Site
					{
						OFFSET 0.000000 0.000000 0.000000
					}
				}
			}
		}
	}
	JOINT RightUpLeg
	{
		OFFSET -0.067670 -0.090522 -0.004320
		CHANNELS 3 Zrotation Yrotation Xrotation
		JOINT RightLeg
		{
			OFFSET -0.038290 -0.382569 -0.008850
			CHANNELS 3 Zrotation Yrotation Xrotation
			JOINT RightFoot
			{
				OFFSET 0.015774 -0.398415 -0.042312
				CHANNELS 3 Zrotation Yrotation Xrotation
				JOINT RightToe
				{
					OFFSET -0.025372 -0.048144 0.123348
					CHANNELS 3 Zrotation Yrotation Xrotation
					End Site
					{
						OFFSET 0.000000 0.000000 0.000000
					}
				}
			}
		}
	}
	JOINT Spine
	{
		OFFSET -0.002533 0.108963 -0.026696
		CHANNELS 3 Zrotation Yrotation Xrotation
		JOINT Spine1
		{
			OFFSET 0.005487 0.135180 0.001092
			CHANNELS 3 Zrotation Yrotation Xrotation
			JOINT Spine2
			{
				OFFSET 0.001457 0.052922 0.025425
				CHANNELS 3 Zrotation Yrotation Xrotation
				JOINT Neck
				{
					OFFSET -0.002778 0.213870 -0.042857
					CHANNELS 3 Zrotation Yrotation Xrotation
					JOINT Head
					{
						OFFSET 0.005152 0.064970 0.051349
						CHANNELS 3 Zrotation Yrotation Xrotation
						End Site
						{
							OFFSET 0.000000 0.000000 0.000000
						}
					}
				}
				JOINT LeftShoulder
				{
					OFFSET 0.078845 0.121749 -0.034090
					CHANNELS 3 Zrotation Yrotation Xrotation
					JOINT LeftArm
					{
						OFFSET 0.090977 0.030469 -0.008868
						CHANNELS 3 Zrotation Yrotation Xrotation
						JOINT LeftForeArm
						{
							OFFSET 0.259612 -0.012772 -0.027456
							CHANNELS 3 Zrotation Yrotation Xrotation
							JOINT LeftHand
							{
								OFFSET 0.249234 0.008986 -0.001171
								CHANNELS 3 Zrotation Yrotation Xrotation
								End Site
								{
									OFFSET 0.000000 0.000000 0.000000
								}
							}
						}
					}
				}
				JOINT RightShoulder
				{
					OFFSET -0.081759 0.118833 -0.038615
					CHANNELS 3 Zrotation Yrotation Xrotation
					JOINT RightArm
					{
						OFFSET -0.096012 0.032551 -0.009143
						CHANNELS 3 Zrotation Yrotation Xrotation
						JOINT RightForeArm
						{
							OFFSET -0.253742 -0.013329 -0.021401
							CHANNELS 3 Zrotation Yrotation Xrotation
							JOINT RightHand
							{
								OFFSET -0.255298 0.007772 -0.005559
								CHANNELS 3 Zrotation Yrotation Xrotation
								End Site
								{
									OFFSET 0.000000 0.000000 0.000000
								}
							}
						}
					}
				}
			}
		}
	}
}
MOTION
Frames: 7
Frame Time: 0.050000
0.000000 0.951411 0.000000 -2.175579 -11.456200 6.934696 7.869393 -0.106343 -4.738055 0.507192 -0.115716 1.789962 0.662283 4.132435 11.344824 0.000000 0.000000 0.000000 0.682228 0.581144 -6.071134 -1.106146 0.035560 -1.123710 -3.897261 -14.232248 14.777159 0.000000 0.000000 0.000000 3.010118 0.447499 -6.740435 -7.134767 3.180616 -3.049331 -4.399483 6.801511 6.304284 8.151007 -4.954270 -8.864196 0.000000 0.000000 0.000000 -5.097789 -11.886379 4.116853 -61.077669 -25.272893 5.973495 -162.128242 -63.402100 158.512752 0.000000 0.000000 0.000000 1.565750 8.100777 2.852722 68.885933 37.863796 17.767619 -139.900554 74.464528 -121.527603 0.000000 0.000000 0.000000 
-0.000688 0.951128 0.000448 -2.754923 -12.887643 7.676265 9.430579 0.009145 -3.382201 -1.417749 0.208831 -1.056222 1.179910 4.953967 11.896406 0.000000 0.000000 0.000000 1.358696 0.651232 -6.762401 -1.387401 0.044381 -1.282173 -3.134995 -13.139015 14.629428 0.000000 0.000000 0.000000 2.272413 0.486258 -7.352607 -7.898401 3.509793 -3.145975 -6.081834 9.672947 4.893950 11.016654 -7.034305 -7.864585 0.000000 0.000000 0.000000 -3.722249 -11.265424 3.642255 -59.890208 -22.702720 4.221175 -160.387377 -61.118750 152.304538 0.000000 0.000000 0.000000 -1.995806 7.820949 2.727708 72.822803 46.908355 27.342777 -124.991575 69.132175 -97.427853 0.000000 0.000000 0.000000 
-0.001258 0.950226 0.000648 -2.648210 -11.582157 7.154366 9.520871 -0.010869 -3.170418 -1.365877 0.197968 -0.994825 0.570207 4.004898 11.459705 0.000000 0.000000 0.000000 1.889260 0.513060 -5.563550 -2.240088 0.057338 -2.186333 -3.762584 -14.007648 14.712958 0.000000 0.000000 0.000000 1.202411 0.389013 -6.653670 -7.786854 3.468926 -3.102885 -8.976507 11.955405 3.403705 12.207625 -8.546508 -4.831820 0.000000 0.000000 0.000000 -3.143276 -10.594638 3.129070 -58.456420 -20.305421 2.591472 -158.281974 -59.253362 144.221635 0.000000 0.000000 0.000000 -4.271613 9.524355 3.143905 67.818568 57.512060 34.496121 -111.045140 55.654165 -65.379014 0.000000 0.000000 0.000000 
-0.001768 0.950077 0.000937 -3.129455 -12.778560 7.857783 10.198692 0.042622 -2.587297 -1.913863 0.293954 -2.561800 1.097140 4.828883 11.861656 0.000000 0.000000 0.000000 2.197677 0.616950 -6.496304 -2.065731 0.078928 -1.503290 -3.022716 -12.716528 13.808831 0.000000 0.000000 0.000000 1.566828 0.446839 -7.150194 -9.936366 4.375719 -3.812885 -11.302516 15.107312 2.955749 15.419264 -11.420983 -3.825577 0.000000 0.000000 0.000000 -1.127530 -10.539978 3.128770 -56.354052 -18.501371 1.283143 -164.900570 -60.746777 153.429295 0.000000 0.000000 0.000000 -10.447346 9.945970 2.523167 59.969133 67.557995 38.903850 -107.688161 40.425095 -43.478098 0.000000 0.000000 0.000000 
-0.002051 0.950718 0.001615 -3.547140 -12.983805 7.786455 9.989968 0.042453 -2.725746 -0.814912 0.151693 -1.814157 1.299140 5.118250 11.752123 0.000000 0.000000 0.000000 2.324943 0.578022 -6.192971 -1.904094 0.074629 -1.370377 -2.179137 -11.214440 13.496454 0.000000 0.000000 0.000000 1.304473 0.383551 -6.395485 -11.555973 5.006611 -4.756968 -12.620234 17.016166 2.858735 17.196414 -12.809230 -4.070285 0.000000 0.000000 0.000000 -0.875038 -11.699741 3.438297 -53.331724 -15.928098 0.039552 -179.111589 -63.769635 175.714205 0.000000 0.000000 0.000000 -16.713298 10.543377 1.761428 31.557824 75.757527 24.517577 -107.534916 24.693333 -23.915602 0.000000 0.000000 0.000000 
-0.002284 0.951535 0.002888 -4.358077 -12.819117 8.596874 10.882441 0.058501 -2.371238 -0.823521 0.198275 -3.523410 1.214088 5.068220 12.241215 0.000000 0.000000 0.000000 2.991699 0.670715 -6.932032 -2.121417 0.125689 -0.740995 -1.225903 -9.515949 13.319193 0.000000 0.000000 0.000000 1.240704 0.362404 -6.155403 -12.883484 5.410750 -6.168231 -13.766473 18.954277 2.612804 18.996857 -14.653956 -3.433484 0.000000 0.000000 0.000000 0.643713 -11.309882 3.450406 -50.690674 -15.078890 -0.418642 160.573507 -62.797769 -153.384222 0.000000 0.000000 0.000000 -22.456237 10.985390 0.894854 -4.725441 72.339796 -1.227793 -108.965256 14.153489 -10.193684 0.000000 0.000000 0.000000 
-0.002294 0.952754 0.004847 -4.721981 -12.642420 9.172722 11.093295 0.049316 -2.937475 -0.517975 0.161081 -3.334919 1.180866 5.066975 12.492645 0.000000 0.000000 0.000000 3.492131 0.727213 -7.354373 -2.595190 0.168914 -0.623798 -0.807374 -8.910166 13.682255 0.000000 0.000000 0.000000 0.811116 0.333729 -5.884267 -14.317341 5.874022 -7.319077 -14.404343 19.558867 2.693871 18.741463 -14.644855 -2.979753 0.000000 0.000000 0.000000 0.303467 -10.182788 3.019019 -48.866061 -14.245787 -0.572950 140.790422 -58.394086 -120.677560 0.000000 0.000000 0.000000 -26.246915 10.884086 0.325768 -24.311728 65.657075 -12.098997 -110.045782 7.132342 -0.685118 0.000000 0.000000 0.000000 
